<?xml version="1.0" encoding="UTF-8" standalone="no"?>
<svg
   viewBox="0 0 154 36"
   fill="#b4b7c9"
   version="1.1"
   id="svg4"
   sodipodi:docname="platform_white.svg"
   inkscape:version="1.2 (dc2aedaf03, 2022-05-15)"
   xmlns:inkscape="http://www.inkscape.org/namespaces/inkscape"
   xmlns:sodipodi="http://sodipodi.sourceforge.net/DTD/sodipodi-0.dtd"
   xmlns="http://www.w3.org/2000/svg"
   xmlns:svg="http://www.w3.org/2000/svg">
  <defs
     id="defs8" />
  <sodipodi:namedview
     id="namedview6"
     pagecolor="#ffffff"
     bordercolor="#000000"
     borderopacity="0.25"
     inkscape:showpageshadow="2"
     inkscape:pageopacity="0.0"
     inkscape:pagecheckerboard="0"
     inkscape:deskcolor="#d1d1d1"
     showgrid="false"
     inkscape:zoom="4.1525975"
     inkscape:cx="3.7326035"
     inkscape:cy="34.677091"
     inkscape:window-width="1858"
     inkscape:window-height="1057"
     inkscape:window-x="54"
     inkscape:window-y="-8"
     inkscape:window-maximized="1"
     inkscape:current-layer="g475" />
  <g
     id="g475"
     transform="translate(0.18061036,-28.717746)">
    <g
       id="g607"
       transform="matrix(0.78521168,0,0,0.79557447,-0.0960205,32.678412)">
      <path
         id="circle4147"
         style="fill:#065894;fill-opacity:1;stroke:none;stroke-width:11.1642;stroke-linejoin:round;stroke-miterlimit:9;paint-order:stroke fill markers"
         d="m 15.409609,8.921084 a 8.920992,8.7064398 0 0 0 -8.9209742,8.706422 8.920992,8.7064398 0 0 0 8.9209742,8.706425 8.920992,8.7064398 0 0 0 8.920974,-8.706425 8.920992,8.7064398 0 0 0 -8.920974,-8.706422 z m 0,5.183263 a 3.6100467,3.5232242 0 0 1 3.610106,3.523159 3.6100467,3.5232242 0 0 1 -3.610106,3.523284 3.6100467,3.5232242 0 0 1 -3.610107,-3.523284 3.6100467,3.5232242 0 0 1 3.610107,-3.523159 z" />
      <path
         id="circle4145"
         style="fill:#0093d9;fill-opacity:1;stroke:none;stroke-width:11.1642;stroke-linejoin:round;stroke-miterlimit:9;paint-order:stroke fill markers"
         d="m 35.718738,13.306561 -5.17824,1.845077 a 3.6100467,3.5232242 0 0 1 0.009,0.0091 l -9.207305,3.251948 0.0098,0.01323 -2.140943,0.762842 a 8.920992,8.7064398 0 0 0 1.276431,3.1516 l 5.330818,-1.89937 a 3.6100467,3.5232242 0 0 1 -0.0055,-0.0042 l 5.687239,-2.023808 a 3.6100467,3.5232242 0 0 1 -0.001,0.0037 l 5.3243,-1.897247 a 8.920992,8.7064398 0 0 0 -1.10456,-3.212879 z" />
      <path
         id="path4472"
         style="fill:#065894;fill-opacity:1;stroke:none;stroke-width:11.1642;stroke-linejoin:round;stroke-miterlimit:9;paint-order:stroke fill markers"
         d="m 27.981358,8.921084 a 8.920992,8.7064398 0 0 0 -8.920974,8.706422 8.920992,8.7064398 0 0 0 0.150396,1.561256 l 5.178248,-1.845077 a 3.6100467,3.5232242 0 0 1 3.59233,-3.239338 3.6100467,3.5232242 0 0 1 2.55914,1.047291 l 5.17824,-1.845077 a 8.920992,8.7064398 0 0 0 -7.73738,-4.385477 z m 8.84194,7.598355 -5.3243,1.897248 a 3.6100467,3.5232242 0 0 1 -3.51764,2.734103 3.6100467,3.5232242 0 0 1 -2.163329,-0.709803 l -5.330818,1.89937 a 8.920992,8.7064398 0 0 0 7.494147,3.993449 8.920992,8.7064398 0 0 0 8.92097,-8.7063 8.920992,8.7064398 0 0 0 -0.079,-1.108067 z" />
      <path
         id="path3813"
         style="fill:#065894;fill-opacity:1;stroke:none;stroke-width:11.1642;stroke-linejoin:round;stroke-miterlimit:9;paint-order:stroke fill markers"
         d="m 40.405758,8.921084 a 8.920992,8.7064398 0 0 0 -8.92098,8.706422 8.920992,8.7064398 0 0 0 8.92098,8.706425 8.920992,8.7064398 0 0 0 8.9211,-8.706425 8.920992,8.7064398 0 0 0 -8.9211,-8.706422 z m 0,5.183263 a 3.6100467,3.5232242 0 0 1 3.61011,3.523159 3.6100467,3.5232242 0 0 1 -3.61011,3.523284 3.6100467,3.5232242 0 0 1 -3.60998,-3.523284 3.6100467,3.5232242 0 0 1 3.60998,-3.523159 z" />
    </g>
    <text
       xml:space="preserve"
       style="font-style:normal;font-variant:normal;font-weight:normal;font-stretch:normal;font-size:17.9167px;font-family:Manrope;-inkscape-font-specification:'Manrope, @wght=800';font-variant-ligatures:normal;font-variant-caps:normal;font-variant-numeric:normal;font-variant-east-asian:normal;font-variation-settings:'wght' 800;fill:#ffffff;fill-opacity:1;stroke-width:4.5211;stroke-linecap:round;stroke-linejoin:round;paint-order:stroke fill markers;stop-color:#000000"
       x="40.582005"
       y="52.941319"
       id="text291"
       transform="scale(0.99547983,1.0045407)"><tspan
         sodipodi:role="line"
         id="tspan289"
         x="40.582005"
         y="52.941319"
         style="font-style:normal;font-variant:normal;font-weight:normal;font-stretch:normal;font-size:17.9167px;font-family:Manrope;-inkscape-font-specification:'Manrope, @wght=800';font-variant-ligatures:normal;font-variant-caps:normal;font-variant-numeric:normal;font-variant-east-asian:normal;font-variation-settings:'wght' 800;fill:#ffffff;fill-opacity:1;stroke-width:4.5211">CEO </tspan></text>
    <text
       xml:space="preserve"
       style="font-style:normal;font-variant:normal;font-weight:200;font-stretch:normal;font-size:17.9167px;font-family:Manrope;-inkscape-font-specification:'Manrope, Ultra-Light';font-variant-ligatures:normal;font-variant-caps:normal;font-variant-numeric:normal;font-variant-east-asian:normal;fill:#ffffff;fill-opacity:1;stroke-width:4.5211;stroke-linecap:round;stroke-linejoin:round;paint-order:stroke fill markers;stop-color:#000000"
       x="79.780067"
       y="53.148392"
       id="text1359"
       transform="scale(0.99547983,1.0045407)"><tspan
         sodipodi:role="line"
         id="tspan1357"
         x="79.780067"
         y="53.148392"
         style="font-style:normal;font-variant:normal;font-weight:200;font-stretch:normal;font-size:17.9167px;font-family:Manrope;-inkscape-font-specification:'Manrope, Ultra-Light';font-variant-ligatures:normal;font-variant-caps:normal;font-variant-numeric:normal;font-variant-east-asian:normal;fill:#ffffff;fill-opacity:1;stroke-width:4.5211">Connect</tspan></text>
  </g>
</svg>
