<?xml version="1.0" encoding="UTF-8" standalone="no"?>
<svg
   viewBox="0 0 154 36"
   fill="#b4b7c9"
   version="1.1"
   id="svg4"
   sodipodi:docname="platform_logo.svg"
   inkscape:version="1.2 (dc2aedaf03, 2022-05-15)"
   xmlns:inkscape="http://www.inkscape.org/namespaces/inkscape"
   xmlns:sodipodi="http://sodipodi.sourceforge.net/DTD/sodipodi-0.dtd"
   xmlns:xlink="http://www.w3.org/1999/xlink"
   xmlns="http://www.w3.org/2000/svg"
   xmlns:svg="http://www.w3.org/2000/svg">
  <defs
     id="defs8">
    <linearGradient
       inkscape:collect="always"
       xlink:href="#linear-gradient"
       id="linearGradient1197"
       gradientUnits="userSpaceOnUse"
       x1="307.44"
       y1="207.66"
       x2="310.48999"
       y2="201.39999" />
    <linearGradient
       id="linear-gradient"
       x1="307.44"
       y1="207.66"
       x2="310.48999"
       y2="201.39999"
       gradientUnits="userSpaceOnUse">
      <stop
         offset="0"
         stop-color="#fff"
         stop-opacity="0"
         id="stop875" />
      <stop
         offset="1"
         stop-color="#f15a24"
         id="stop877" />
    </linearGradient>
    <linearGradient
       id="linear-gradient-2"
       x1="84.150002"
       y1="175.81"
       x2="108.51"
       y2="151.99001"
       xlink:href="#linear-gradient" />
    <linearGradient
       id="linear-gradient-3"
       x1="146.89999"
       y1="275.87"
       x2="184.46001"
       y2="226.14"
       xlink:href="#linear-gradient" />
    <linearGradient
       id="linear-gradient-4"
       x1="38.869999"
       y1="199.42999"
       x2="54.32"
       y2="188.49001"
       xlink:href="#linear-gradient" />
  </defs>
  <sodipodi:namedview
     id="namedview6"
     pagecolor="#ffffff"
     bordercolor="#000000"
     borderopacity="0.25"
     inkscape:showpageshadow="2"
     inkscape:pageopacity="0.0"
     inkscape:pagecheckerboard="0"
     inkscape:deskcolor="#d1d1d1"
     showgrid="false"
     inkscape:zoom="5.8726596"
     inkscape:cx="78.329077"
     inkscape:cy="-31.842472"
     inkscape:window-width="2000"
     inkscape:window-height="1046"
     inkscape:window-x="-9"
     inkscape:window-y="-9"
     inkscape:window-maximized="1"
     inkscape:current-layer="g1408" />
  <g
     id="g1408">
    <text
       xml:space="preserve"
       style="font-style:normal;font-variant:normal;font-weight:normal;font-stretch:normal;font-size:25.8142px;font-family:'Passion One';-inkscape-font-specification:'Passion One, Normal';font-variant-ligatures:normal;font-variant-caps:normal;font-variant-numeric:normal;font-variant-east-asian:normal;fill:#24285b;fill-opacity:1;stroke-width:6.51395;stroke-linecap:round;stroke-linejoin:round;paint-order:stroke fill markers;stop-color:#000000"
       x="45.793758"
       y="25.933947"
       id="text291"
       transform="scale(0.99547983,1.0045407)"><tspan
         sodipodi:role="line"
         id="tspan289"
         x="45.793758"
         y="25.933947"
         style="font-style:normal;font-variant:normal;font-weight:normal;font-stretch:normal;font-size:25.8142px;font-family:'Passion One';-inkscape-font-specification:'Passion One, Normal';font-variant-ligatures:normal;font-variant-caps:normal;font-variant-numeric:normal;font-variant-east-asian:normal;fill:#24285b;fill-opacity:1;stroke-width:6.51395">KSM STORE</tspan></text>
    <g
       style="isolation:isolate"
       id="g1014"
       transform="matrix(0.36711921,0,0,0.36711921,170.08216,38.953964)">
      <g
         id="Layer_2"
         data-name="Layer 2"
         transform="translate(110.20019,-409.31499)">
        <path
           d="m 186.67,288.42 -165.77,-98 c -5.28,-3 -9.8,-7.83 -4.66,-11 L 182.61,83.55 c 2.5,-1.55 6.29,-2.56 8.82,-1.09 l 174,101 c 5.28,3.06 6.22,11.63 0.94,14.69 l -157.85,90.11 a 22,22 0 0 1 -21.85,0.16 z"
           fill="#ffb7a6"
           id="path887" />
        <path
           d="m 310.29,191.47 c -5,3.91 -10.23,7.52 -15.5,11.05 l 13,7.62 19.61,-12.4 z"
           opacity="0.63"
           fill="url(#linear-gradient)"
           style="mix-blend-mode:multiply;fill:url(#linearGradient1197)"
           id="path889" />
        <path
           d="m 305.42,172.61 c 0,0 -2.68,23 9.51,27.5 12.19,4.5 18.71,-7.14 18.9,-27.5"
           fill="#06577a"
           id="path891" />
        <ellipse
           cx="319.62"
           cy="172.61"
           rx="14.21"
           ry="8.21"
           fill="#f2696a"
           id="ellipse893" />
        <path
           d="m 323.26,154.35 c 0,0 -5.58,-8.05 -3.14,-13.62 0,0 2,-3.58 4.85,-4.14 0,0 -0.28,7.63 2.56,6.66 2.84,-0.97 0,-8 0,-8 0,0 3,-4 6.25,-3.91 3.25,0.09 0,7.14 2.27,6 2.27,-1.14 0.14,-7.13 2.7,-7.84 a 53.69,53.69 0 0 1 7.1,-1.14 c 0,0 2.42,7 0,8 -2.42,1 -6,1.33 -4.26,2.87 1.74,1.54 6.54,-0.23 6.54,-0.23 0,0 0.3,3.92 -1.34,5.61 -1.64,1.69 -11.3,-2.05 -9.6,1.31 1.7,3.36 8.1,1.68 8.1,1.68 0,0 -3.27,4.67 -7.1,6.8 -3.83,2.13 -14.93,-0.05 -14.93,-0.05 z"
           fill="#8ccc00"
           id="path895" />
        <path
           d="m 324.57,174.49 c 0,0 -4,-4 -3.24,-7.39 0,0 0.76,-2.24 2.31,-2.87 0,0 0.65,4.36 2.16,3.51 1.51,-0.85 -0.85,-4.53 -0.85,-4.53 0,0 1.26,-2.61 3.13,-2.89 1.87,-0.28 0.76,4.05 1.93,3.15 1.17,-0.9 -0.68,-4.06 0.7,-4.74 a 31,31 0 0 1 3.91,-1.4 c 0,0 2.11,3.69 0.85,4.52 -1.26,0.83 -3.25,1.39 -2.11,2.08 1.14,0.69 3.69,-0.83 3.69,-0.83 0,0 0.59,2.19 -0.16,3.33 -0.75,1.14 -6.64,0 -5.31,1.77 1.33,1.77 4.78,0.09 4.78,0.09 A 15.12,15.12 0 0 1 333,172.9 c -1.91,1.62 -8.43,1.59 -8.43,1.59 z"
           fill="#8ccc00"
           id="path897" />
        <path
           d="m 309.76,165.9 c 0,0 -9.79,0.38 -13.17,-4.66 0,0 -1.94,-3.61 -0.89,-6.32 0,0 6.28,4.34 7,1.42 0.72,-2.92 -6.74,-4.29 -6.74,-4.29 0,0 -1.81,-4.69 0.06,-7.38 1.87,-2.69 6,3.83 6.26,1.29 0.26,-2.54 -5.94,-3.95 -5.16,-6.49 a 53.69,53.69 0 0 1 2.86,-6.6 c 0,0 7.17,1.7 6.71,4.28 -0.46,2.58 -2.08,5.75 0.13,5.14 2.21,-0.61 3.32,-5.64 3.32,-5.64 0,0 3.47,1.85 4,4.15 0.53,2.3 -7.81,8.43 -4.05,8.8 3.76,0.37 5.77,-5.93 5.77,-5.93 0,0 2.18,5.27 1.92,9.65 -0.26,4.38 -8.02,12.58 -8.02,12.58 z"
           fill="#8ccc00"
           id="path899" />
        <path
           d="m 343.73,131.43 q -1.55,1.32 -3.13,2.68 c 0.11,-1.11 0.24,-2.21 0.41,-3.31 0.09,-0.58 -0.8,-0.83 -0.89,-0.25 q -0.35,2.21 -0.53,4.44 c -2.74,2.41 -5.47,4.92 -8,7.59 a 33,33 0 0 1 -0.17,-5.65 c 0,-0.59 -0.89,-0.59 -0.92,0 a 34,34 0 0 0 0.27,6.53 64,64 0 0 0 -4.55,5.49 18.32,18.32 0 0 1 -3.17,-7.39 c -0.11,-0.58 -1,-0.34 -0.89,0.25 a 19,19 0 0 0 3.42,7.83 0.47,0.47 0 0 0 0.09,0.08 c -4.07,5.76 -6.87,12.23 -7.1,19.72 0,0.6 0.91,0.59 0.92,0 0.23,-7.21 2.91,-13.46 6.81,-19 a 35.66,35.66 0 0 0 11.46,1.12 c 0.59,0 0.6,-1 0,-0.92 a 34.94,34.94 0 0 1 -10.89,-1 67.07,67.07 0 0 1 6.44,-7.48 h 0.08 c 2.16,0.19 4.32,0.38 6.48,0.46 a 7.91,7.91 0 0 0 4,-0.47 c 0.53,-0.27 0.06,-1.07 -0.47,-0.8 -1.49,0.75 -3.58,0.35 -5.18,0.26 -1.37,-0.08 -2.74,-0.2 -4.11,-0.32 3.3,-3.26 6.83,-6.3 10.24,-9.19 0.49,-0.4 -0.17,-1.1 -0.62,-0.67 z"
           fill="#06577a"
           id="path901" />
        <path
           d="m 315.08,149.43 a 0.46222289,0.46222289 0 0 0 -0.89,-0.25 16.38,16.38 0 0 1 -5.93,8.53 q -1.57,-4.36 -2.88,-8.82 a 27.62,27.62 0 0 0 5.42,-7.66 c 0.26,-0.53 -0.54,-1 -0.8,-0.47 a 26.91,26.91 0 0 1 -4.93,7.09 c -1,-3.4 -1.82,-6.84 -2.54,-10.31 -0.12,-0.58 -1,-0.34 -0.89,0.25 q 1.47,7.12 3.64,14.05 a 21.69,21.69 0 0 1 -5,-1.65 c -0.54,-0.25 -1,0.54 -0.47,0.8 a 22.69,22.69 0 0 0 5.84,1.86 v 0 c 1,3 2.07,6 3.24,9 a 22.36,22.36 0 0 1 -8,-1.77 c -0.54,-0.23 -1,0.57 -0.47,0.8 a 23.59,23.59 0 0 0 8.87,1.91 q 2.23,5.56 4.9,10.94 c 0.27,0.53 1.06,0.06 0.8,-0.47 a 144.32,144.32 0 0 1 -6.34,-14.68 v 0 a 17.39,17.39 0 0 0 6.43,-9.15 z"
           fill="#06577a"
           id="path903" />
        <path
           d="m 331.82,161.38 -2.54,4.27 a 8,8 0 0 1 -0.81,-1.33 c -0.26,-0.54 -1.05,-0.07 -0.8,0.47 a 8.81,8.81 0 0 0 1.06,1.68 v 0 l -2.73,4.65 a 1.89,1.89 0 0 1 -0.57,-1.11 c -0.07,-0.58 -1,-0.59 -0.92,0 a 2.91,2.91 0 0 0 1,1.9 l -3.45,5.79 a 0.46392349,0.46392349 0 0 0 0.8,0.47 l 4.55,-7.63 a 6.91,6.91 0 0 0 2.25,-0.34 c 0.56,-0.18 0.32,-1.08 -0.25,-0.89 a 6.15,6.15 0 0 1 -1.43,0.27 l 4.61,-7.73 a 0.46,0.46 0 0 0 -0.77,-0.47 z"
           fill="#06577a"
           id="path905" />
        <polyline
           points="145.86 150.79 59.73 201.74 35.89 187.69 97.27 151.68"
           opacity="0.63"
           fill="url(#linear-gradient-2)"
           style="mix-blend-mode:multiply;fill:url(#linear-gradient-2)"
           id="polyline907" />
        <path
           d="m 121.23,164.77 v -27.52 l 24.63,-13.76 v 27.29 z"
           fill="#eca016"
           id="path909" />
        <path
           d="m 121.23,137.25 -24,-13.76 c 0,0 -0.67,27.74 0,28.18 0.67,0.44 24,13.09 24,13.09 z"
           fill="#ffb72f"
           id="path911" />
        <polygon
           points="145.86,123.5 121.23,137.25 97.27,123.5 121.23,108.85 "
           fill="#ffc863"
           id="polygon913" />
        <polygon
           points="106.39,117.92 131.34,131.6 131.34,145.97 138.52,142.34 138.52,127.6 113.57,113.53 "
           fill="#fdedcb"
           id="polygon915" />
        <polyline
           points="230.83 261.69 188.85 289.48 102 238.38 148.23 213.12"
           opacity="0.63"
           fill="url(#linear-gradient-3)"
           style="mix-blend-mode:multiply;fill:url(#linear-gradient-3)"
           id="polyline917" />
        <path
           d="m 187.91,13.44 c 16.43,10.29 57.74,34.19 71.83,42.83 3.19,2 3.68,4.87 3.73,8.62 v 174.85 a 5.58,5.58 0 0 1 -7.18,1.1 l -69.33,-39.18 c -3.45,-2 -6.16,-4.12 -6.16,-8.12 l 0.6,-176.93 c -0.02,-3.83 3.26,-5.2 6.51,-3.17 z"
           fill="#68e1fd"
           class="target-color"
           id="path919" />
        <path
           d="m 181.51,15.36 22.54,13 v 4.87 a 2.34,2.34 0 0 0 1.17,2 l 17.44,10.08 A 1.54,1.54 0 0 0 225,44 v -3.54 l 32.75,19.2 a 2.08,2.08 0 0 1 1,1.79 v 174.84 a 1.41,1.41 0 0 1 -2.12,1.22 l -75.85,-44 a 7.52,7.52 0 0 0 3.34,7 c 3.93,2.51 73,41.6 73,41.6 0,0 5.46,2.47 7.06,-4.05 V 62.18 a 7.2,7.2 0 0 0 -3,-5.84 C 258.08,54 187.6,13.08 187.6,13.08 c 0,0 -4.96,-2.31 -6.09,2.28 z"
           fill="#124577"
           id="path921" />
        <path
           d="m 168.66,51.38 v 16 a 6.28,6.28 0 0 0 4.76,5.31 c 4.33,1 4.92,-4.72 4.92,-4.72 V 56.16 Z"
           fill="#c13d3d"
           id="path923" />
        <path
           d="m 178.09,57.74 0.4,16.85 a 6.28,6.28 0 0 0 4.76,5.31 c 4.33,1 4.92,-4.72 4.92,-4.72 V 63.37 Z"
           fill="#dd842a"
           id="path925" />
        <path
           d="m 188.17,63.47 v 16 a 6.28,6.28 0 0 0 4.76,5.31 c 4.33,1 4.92,-4.72 4.92,-4.72 V 68.25 Z"
           fill="#c13d3d"
           id="path927" />
        <path
           d="m 197.85,69.31 v 16 a 6.28,6.28 0 0 0 4.76,5.31 c 4.33,1 4.92,-4.72 4.92,-4.72 V 74.09 Z"
           fill="#dd842a"
           id="path929" />
        <path
           d="m 207.53,74.19 v 16 a 6.28,6.28 0 0 0 4.76,5.31 c 4.33,1 4.92,-4.72 4.92,-4.72 V 79 Z"
           fill="#c13d3d"
           id="path931" />
        <path
           d="m 217.05,80.73 v 16 a 6.28,6.28 0 0 0 4.76,5.31 c 4.33,1 4.92,-4.72 4.92,-4.72 V 85.51 Z"
           fill="#dd842a"
           id="path933" />
        <polyline
           points="217.05 81.54 240.05 49.12 248.91 54.54 226.74 87.26"
           fill="#f29d40"
           id="polyline935" />
        <polyline
           points="207.53 75.86 230.1 43.46 240.05 49.12 217.05 81.54"
           fill="#e04f4f"
           id="polyline937" />
        <polyline
           points="197.85 70.16 221.3 38.04 230.1 43.46 207.54 75.94"
           fill="#f29d40"
           id="polyline939" />
        <polyline
           points="188.17 64.27 210.93 32.21 221.3 38.04 197.84 70.08"
           fill="#e04f4f"
           id="polyline941" />
        <polyline
           points="178.34 58.23 200.12 26.18 210.93 32.21 188.17 64.27"
           fill="#f29d40"
           id="polyline943" />
        <polyline
           points="168.66 52.36 190.3 20.44 200.12 26.18 178.34 58.23"
           fill="#e04f4f"
           id="polyline945" />
        <polyline
           points="158.98 46.71 181.51 15.36 190.3 20.44 168.66 52.36"
           fill="#f29d40"
           id="polyline947" />
        <path
           d="m 257.72,59.66 c 0,0 1,0.21 1,2 v 30.82 l -25.13,14.37 3.5,-22 z"
           fill="#aa2b2b"
           id="path949" />
        <path
           d="m 226.74,87.26 v 14.34 a 6.28,6.28 0 0 0 4.76,5.31 c 4.33,1 4.92,-4.72 4.92,-4.72 l -0.19,-9.43 z"
           fill="#c13d3d"
           id="path951" />
        <polyline
           points="236.23 92.76 257.72 59.66 248.91 54.54 226.74 87.26"
           fill="#e04f4f"
           id="polyline953" />
        <path
           d="m 159,46.71 v 16.81 a 6.28,6.28 0 0 0 4.76,5.31 c 4.33,1 4.92,-4.72 4.92,-4.72 V 52.3 Z"
           fill="#dd842a"
           id="path955" />
        <path
           d="m 198.86,133.62 c 0,0 3.58,-7.29 3,-7.93 -0.58,-0.64 -2.62,2.23 -2.62,2.23 0,0 0,-7.47 -0.64,-7.59 -0.64,-0.12 -1,4.66 -1,4.66 0,0 -0.7,-5.55 -1.79,-5.55 -1.09,0 0,5.3 0,5.3 0,0 -1.91,-3.32 -2.55,-3.06 -0.64,0.26 1,4.44 1,4.44 0,0 -1.79,-1.5 -2,-1.12 -0.21,0.38 1.85,5.59 3.19,6.84 a 13.53,13.53 0 0 1 2.23,2.85"
           fill="#ffe5d0"
           id="path957" />
        <path
           d="m 214.79,131.92 c 0.49,0.36 -3.65,-1.39 -10.91,16.21 0,0 -1.91,-8.39 -2.52,-14 a 8.46,8.46 0 0 0 -6.44,-1.42 c -0.11,4.1 -0.24,20.09 4.23,22.47 5.14,2.73 10.56,3 13.6,-4 0,0.06 9.86,-15.4 2.04,-19.26 z"
           fill="#ba5738"
           id="path959" />
        <path
           d="m 230.56,151.68 0.49,0.64 c 1.56,-6 1.85,-13.23 -1.19,-18.44 -2.8,-1.1 -5.79,-1.29 -6.31,-1.85 l -7.94,-0.31 a 2.4,2.4 0 0 0 -2,1 c -2,2.68 -6.93,10.18 -5.22,16.89 2.12,8.35 1.42,14.7 1.57,20.77 0.15,6.07 -7.29,20 -6.37,29 0.92,9 27.48,14.57 28.69,9.26 4.3,-19 5,-28.95 1.16,-37.18 -3.84,-8.23 -2.88,-19.78 -2.88,-19.78 z"
           fill="#cc7452"
           id="path961" />
        <path
           d="m 229.85,133.88 c 0,0 5.29,2.21 7.78,13.12 2.49,10.91 3.58,12.78 -6.55,19.33 -10.13,6.55 -9,5.77 -9,5.77 0,0 -5.81,-3.43 -4.73,-5.61 1.08,-2.18 13.16,-7.85 12.73,-11.64 -0.43,-3.79 -5.91,-7.84 -5.91,-7.84"
           fill="#cc7452"
           id="path963" />
        <path
           d="m 229,149.06 a 0.57,0.57 0 0 0 -1.09,0.3 25.18,25.18 0 0 1 1.2,4.64 c 0.24,2.87 -1,4.34 -3.17,5.86 a 41.42,41.42 0 0 1 -7.14,3.71 0.44,0.44 0 0 0 -0.27,0.57 0.5,0.5 0 0 0 -0.24,0.61 14.2,14.2 0 0 0 3.07,6.22 0.5,0.5 0 0 0 0.47,0.16 0.56,0.56 0 0 0 0.62,0.28 16.94,16.94 0 0 0 6.44,-2.76 c 0.59,-0.42 0,-1.4 -0.57,-1 a 16.12,16.12 0 0 1 -6.07,2.62 0.55,0.55 0 0 0 -0.08,-0.12 12.86,12.86 0 0 1 -2.75,-5.63 c 3.52,-1.55 7.24,-3.19 9.9,-6.07 2.39,-2.64 0.54,-6.3 -0.32,-9.39 z"
           fill="#ba5738"
           id="path965" />
        <path
           d="m 177,153 81.79,47.25 -28.2,16.65 -83.14,-47.13 z"
           fill="#ffa364"
           id="path967" />
        <path
           d="m 218.24,164.75 a 25.27,25.27 0 0 1 -5.33,2 c -1.86,0.27 -3.54,-1.42 -4.16,-0.62 -0.62,0.8 2.77,1.22 2,1.77 -0.77,0.55 -2.94,1 -3.56,2.22 -0.62,1.22 -1.42,3.46 0.44,4.7 1.86,1.24 4.61,-1.24 6.38,-2.3 1.77,-1.06 5.65,-4 5.65,-4 0,0 -0.51,-2.85 -1.42,-3.77 z"
           fill="#ffe5d0"
           id="path969" />
        <polygon
           points="258.75,245.52 258.75,200.25 230.55,216.9 230.55,263.27 "
           fill="#ffbb8d"
           id="polygon971" />
        <polygon
           points="230.55,263.27 230.55,216.9 147.41,169.78 147.41,212.62 "
           fill="#e58341"
           id="polygon973" />
        <path
           d="m 217.26,129.18 a 14,14 0 0 1 -0.91,4.71 c -0.83,1.58 2.23,2.16 4.8,1.42 2.57,-0.74 1.33,-6.7 1.33,-6.7"
           fill="#ffe5d0"
           id="path975" />
        <path
           d="m 213.1,120.07 c 0,0 -3.1,8.49 -0.78,9.81 2.32,1.32 8.1,0 8.1,0"
           fill="#e84c1c"
           id="path977" />
        <path
           d="m 212.39,118.28 c 0,0 -1.1,12 5.13,13.06 6.23,1.06 7.48,-11.34 6.24,-13.06 -1.24,-1.72 -9.76,-2.79 -11.37,0 z"
           fill="#ffe5d0"
           id="path979" />
        <path
           d="m 220.42,127.25 a 5.9,5.9 0 0 0 0.65,4.52 14,14 0 0 0 7.78,-0.43 c 3.34,-7.7 -0.06,-19.46 -8.2,-20.34 -8.14,-0.88 -9.4,3.81 -9.86,6.59 -0.46,2.78 1.53,2.54 2.31,2.49 6.9,-0.45 8.78,2.77 7.32,7.17 z"
           fill="#e84c1c"
           id="path981" />
        <path
           d="m 74.06,105 a 4,4 0 0 1 4.33,0 c 2.4,1.76 2.41,6.58 0,10.79 a 11.07,11.07 0 0 1 -4.32,4.46 4,4 0 0 1 -4.33,0 c -2.4,-1.76 -2.41,-6.58 0,-10.79 A 11.07,11.07 0 0 1 74.06,105 Z"
           fill="#68e1fd"
           class="target-color"
           id="path983" />
        <path
           d="m 74,79.15 c 6.9,-3.54 13.81,-3.8 19.08,0.07 0.76,0.56 0.77,2.1 0,3.44 a 3.55,3.55 0 0 1 -1.38,1.42 1.28,1.28 0 0 1 -1.38,0 C 85.81,80.77 79.9,81 74,84 68.1,87 62.21,92.85 57.74,100.75 a 3.55,3.55 0 0 1 -1.38,1.42 1.28,1.28 0 0 1 -1.38,0 c -0.77,-0.56 -0.77,-2.1 0,-3.44 C 60.2,89.5 67.09,82.69 74,79.15 Z"
           fill="#68e1fd"
           class="target-color"
           id="path985" />
        <path
           d="m 73.94,65.82 c 9.51,-4.88 19,-5.15 26.45,0.28 1.23,0.91 0.35,4 -1.37,4.87 a 1.27,1.27 0 0 1 -1.38,0 C 91,66.08 82.47,66.31 74,70.67 65.53,75.03 57,83.53 50.34,95.2 a 3.52,3.52 0 0 1 -1.34,1.42 1.29,1.29 0 0 1 -1.39,0 c -0.76,-0.56 -0.77,-2.1 0,-3.44 7.32,-13.01 16.82,-22.49 26.33,-27.36 z"
           fill="#68e1fd"
           class="target-color"
           id="path987" />
        <path
           d="m 74,91.62 c 4.34,-2.22 8.69,-2.39 12,0 1.23,0.9 0.35,4 -1.37,4.86 a 1.29,1.29 0 0 1 -1.38,0 c -2.55,-1.87 -5.9,-1.75 -9.24,0 a 23.6,23.6 0 0 0 -9.18,9.52 3.52,3.52 0 0 1 -1.38,1.42 1.29,1.29 0 0 1 -1.39,0 c -0.76,-0.57 -0.77,-2.11 0,-3.44 C 65.35,98.13 69.68,93.84 74,91.62 Z"
           fill="#68e1fd"
           class="target-color"
           id="path989" />
        <path
           d="m 178.27,174.55 v -11 l 9.84,-5.5 V 169 Z"
           fill="#eca016"
           id="path991" />
        <path
           d="m 178.27,163.56 -9.58,-5.5 c 0,0 -0.27,11.09 0,11.26 0.27,0.17 9.58,5.23 9.58,5.23 z"
           fill="#ffb72f"
           id="path993" />
        <polygon
           points="188.12,158.06 178.27,163.56 168.69,158.06 178.27,152.2 "
           fill="#ffc863"
           id="polygon995" />
        <polygon
           points="172.34,155.83 182.31,161.3 182.31,167.04 185.18,165.59 185.18,159.7 175.21,154.07 "
           fill="#fdedcb"
           id="polygon997" />
        <path
           d="M 45.09,202.77 78.6,183 l -24,-1.74 -24,12.48 c 3.67,2.62 10.67,6.45 14.49,9.03 z"
           opacity="0.63"
           fill="url(#linear-gradient-4)"
           style="mix-blend-mode:multiply;fill:url(#linear-gradient-4)"
           id="path999" />
        <path
           d="m 58.83,134 c -7.66,0.53 -7.26,12.92 -7.78,18.06 -0.13,1.29 1.86,1.72 2,0.42 0.43,-4.28 0.15,-10.08 2.53,-13.85 0.74,-1.17 1.61,-2.31 3.12,-2.41 a 3.35,3.35 0 0 1 2.5,1 c 0.67,0.61 1,3 1.14,3.72 a 30.44,30.44 0 0 1 0.13,8 c -0.14,1.29 1.85,1.72 2,0.42 0.41,-4.11 1.18,-15.88 -5.64,-15.36 z"
           fill="#8ccc00"
           id="path1001" />
        <polyline
           points="70.28 142.26 72.59 146.1 77.19 147.06 73.74 158.96 63.95 152.63"
           fill="#dd842a"
           id="polyline1003" />
        <polygon
           points="69.52,161.65 51.47,163.38 46.67,155.32 70.28,142.26 "
           fill="#c13d3d"
           id="polygon1005" />
        <polygon
           points="80.84,181.61 77.19,147.06 55.12,158.2 58.77,194.86 "
           fill="#f29d40"
           id="polygon1007" />
        <polygon
           points="55.12,158.2 52.63,155.32 46.67,155.32 44.18,187.37 50.59,190.32 58.77,194.86 "
           fill="#dd842a"
           id="polygon1009" />
        <path
           d="m 68.69,140.08 c -7.68,0.07 -8,12.46 -8.84,17.56 -0.21,1.28 1.75,1.83 2,0.54 0.69,-4.25 0.75,-10.06 3.35,-13.68 1.07,-1.48 2.94,-2.73 4.77,-1.76 1.65,0.87 1.67,2.82 1.83,4.45 a 30.44,30.44 0 0 1 -0.34,8 c -0.21,1.28 1.75,1.83 2,0.54 C 74,151.72 75.53,140 68.69,140.08 Z"
           fill="#8ccc00"
           id="path1011" />
      </g>
    </g>
    <polygon
       points="0,41.872 0,11.368 121.752,11.368 167.312,146.232 138.424,156 99.856,41.872 "
       id="polygon255"
       transform="matrix(0.06153191,0,0,0.06153191,8.5257158,1.6651333)"
       style="fill:#124577;fill-opacity:1" />
    <polygon
       style="fill:#f29d40;fill-opacity:1"
       points="407.224,356.872 134.968,356.872 64.448,130.384 487.944,130.384 "
       id="polygon257"
       transform="matrix(0.06153191,0,0,0.06153191,8.5257158,1.6651333)" />
    <circle
       cx="30.658989"
       cy="28.856331"
       r="3.613646"
       id="circle259"
       style="fill:#124577;fill-opacity:1;stroke-width:0.0615319" />
    <circle
       cx="19.759964"
       cy="28.856331"
       r="3.613646"
       id="circle261"
       style="fill:#124577;fill-opacity:1;stroke-width:0.0615319" />
    <path
       style="fill:#e04f4f;fill-opacity:1;stroke-width:0.0671445"
       d="M 40.30613,21.685566 H 23.460391 c -1.534653,0 -2.790523,-1.25587 -2.790523,-2.790524 v -4.604499 c 0,-1.534653 1.25587,-2.790523 2.790523,-2.790523 H 40.30613 c 1.534655,0 2.790524,1.25587 2.790524,2.790523 v 4.604499 c 0,1.534654 -1.255869,2.790524 -2.790524,2.790524 z"
       id="path263" />
    <g
       id="g275"
       transform="matrix(0.06714447,0,0,0.06714447,8.7186889,0.2106179)">
	<path
   style="fill:#ffffff"
   d="m 227.216,261.472 c 4.344,2.224 11.04,4.456 17.936,4.456 7.432,0 11.368,-3.088 11.368,-7.76 0,-4.456 -3.4,-7 -12,-10.088 -11.888,-4.144 -19.64,-10.72 -19.64,-21.128 0,-12.216 10.192,-21.56 27.072,-21.56 8.08,0 14.024,1.704 18.264,3.608 l -3.608,13.056 c -2.872,-1.376 -7.968,-3.392 -14.976,-3.392 -7.008,0 -10.4,3.192 -10.4,6.896 0,4.576 4.04,6.584 13.272,10.088 12.64,4.672 18.584,11.256 18.584,21.344 0,12 -9.232,22.2 -28.888,22.2 -8.184,0 -16.248,-2.136 -20.288,-4.36 z"
   id="path265" />

	<path
   style="fill:#ffffff"
   d="m 300.992,211.344 v 14.864 h 11.576 v 11.904 h -11.576 v 18.792 c 0,6.264 1.488,9.136 6.376,9.136 2.008,0 3.608,-0.216 4.776,-0.416 l 0.104,12.208 c -2.12,0.848 -5.944,1.384 -10.504,1.384 -5.208,0 -9.568,-1.816 -12.104,-4.472 -2.984,-3.072 -4.472,-8.064 -4.472,-15.392 v -21.224 h -6.896 v -11.904 h 6.896 v -11.256 z"
   id="path267" />

	<path
   style="fill:#ffffff"
   d="m 372.672,251.584 c 0,19 -13.488,27.72 -27.4,27.72 -15.192,0 -26.864,-9.984 -26.864,-26.76 0,-16.768 11.04,-27.504 27.72,-27.504 15.928,0 26.544,10.936 26.544,26.544 z m -37.592,0.536 c 0,8.92 3.72,15.608 10.616,15.608 6.264,0 10.304,-6.264 10.304,-15.608 0,-7.752 -2.976,-15.608 -10.304,-15.608 -7.752,0 -10.616,7.96 -10.616,15.608 z"
   id="path269" />

	<path
   style="fill:#ffffff"
   d="m 382.64,243.304 c 0,-7.648 -0.216,-12.64 -0.432,-17.096 h 13.92 l 0.52,9.568 h 0.432 c 2.656,-7.544 9.016,-10.736 14.008,-10.736 1.488,0 2.232,0 3.4,0.216 v 15.184 c -1.168,-0.208 -2.552,-0.416 -4.36,-0.416 -5.944,0 -9.984,3.192 -11.04,8.184 -0.216,1.056 -0.32,2.336 -0.32,3.608 v 26.336 H 382.64 Z"
   id="path271" />

	<path
   style="fill:#ffffff"
   d="m 434.552,257.328 c 0.536,6.68 7.112,9.872 14.656,9.872 5.512,0 9.976,-0.752 14.328,-2.12 l 2.12,10.936 c -5.312,2.12 -11.784,3.192 -18.792,3.192 -17.632,0 -27.72,-10.2 -27.72,-26.448 0,-13.16 8.184,-27.72 26.232,-27.72 16.768,0 23.144,13.072 23.144,25.912 0,2.76 -0.32,5.208 -0.536,6.376 z M 453.56,246.28 c 0,-3.928 -1.688,-10.504 -9.136,-10.504 -6.792,0 -9.552,6.152 -9.976,10.504 z"
   id="path273" />

</g>
  </g>
</svg>
