<?xml version="1.0" encoding="UTF-8" standalone="no"?>
<svg
   viewBox="0 0 154 36"
   fill="#b4b7c9"
   version="1.1"
   id="svg4"
   sodipodi:docname="seas_logo.svg"
   inkscape:version="1.2 (dc2aedaf03, 2022-05-15)"
   inkscape:export-filename="seas_logo.png"
   inkscape:export-xdpi="96"
   inkscape:export-ydpi="96"
   xml:space="preserve"
   xmlns:inkscape="http://www.inkscape.org/namespaces/inkscape"
   xmlns:sodipodi="http://sodipodi.sourceforge.net/DTD/sodipodi-0.dtd"
   xmlns:xlink="http://www.w3.org/1999/xlink"
   xmlns="http://www.w3.org/2000/svg"
   xmlns:svg="http://www.w3.org/2000/svg"><defs
     id="defs8"><linearGradient
       id="linear-gradient"
       x1="307.44"
       y1="207.66"
       x2="310.48999"
       y2="201.39999"
       gradientUnits="userSpaceOnUse"><stop
         offset="0"
         stop-color="#fff"
         stop-opacity="0"
         id="stop875" /><stop
         offset="1"
         stop-color="#f15a24"
         id="stop877" /></linearGradient><linearGradient
       id="linear-gradient-2"
       x1="84.150002"
       y1="175.81"
       x2="108.51"
       y2="151.99001"
       xlink:href="#linear-gradient" /><linearGradient
       id="linear-gradient-3"
       x1="146.89999"
       y1="275.87"
       x2="184.46001"
       y2="226.14"
       xlink:href="#linear-gradient" /><linearGradient
       id="linear-gradient-4"
       x1="38.869999"
       y1="199.42999"
       x2="54.32"
       y2="188.49001"
       xlink:href="#linear-gradient" /></defs><sodipodi:namedview
     id="namedview6"
     pagecolor="#ffffff"
     bordercolor="#000000"
     borderopacity="0.25"
     inkscape:showpageshadow="2"
     inkscape:pageopacity="0.0"
     inkscape:pagecheckerboard="0"
     inkscape:deskcolor="#d1d1d1"
     showgrid="false"
     inkscape:zoom="4.1525974"
     inkscape:cx="46.958561"
     inkscape:cy="21.432369"
     inkscape:window-width="1600"
     inkscape:window-height="837"
     inkscape:window-x="1912"
     inkscape:window-y="105"
     inkscape:window-maximized="1"
     inkscape:current-layer="g1408" /><g
     id="g1408"><text
       xml:space="preserve"
       style="font-style:normal;font-variant:normal;font-weight:normal;font-stretch:normal;font-size:24.6049px;font-family:'Passion One';-inkscape-font-specification:'Passion One, Normal';font-variant-ligatures:normal;font-variant-caps:normal;font-variant-numeric:normal;font-variant-east-asian:normal;letter-spacing:1.22px;fill:#000000;fill-opacity:1;stroke-width:6.20882;stroke-linecap:round;stroke-linejoin:round;paint-order:stroke fill markers;stop-color:#000000"
       x="54.53223"
       y="19.190794"
       id="text291"
       transform="scale(0.99547983,1.0045407)"><tspan
         sodipodi:role="line"
         id="tspan289"
         x="54.53223"
         y="19.190794"
         style="font-style:normal;font-variant:normal;font-weight:normal;font-stretch:normal;font-size:24.6049px;font-family:'Passion One';-inkscape-font-specification:'Passion One, Normal';font-variant-ligatures:normal;font-variant-caps:normal;font-variant-numeric:normal;font-variant-east-asian:normal;fill:#000000;fill-opacity:1;stroke-width:6.20882">ENS SEAS</tspan></text><text
       xml:space="preserve"
       style="font-style:normal;font-variant:normal;font-weight:normal;font-stretch:normal;font-size:9.75855px;font-family:'Passion One';-inkscape-font-specification:'Passion One, Normal';font-variant-ligatures:normal;font-variant-caps:normal;font-variant-numeric:normal;font-variant-east-asian:normal;letter-spacing:4.87px;fill:#000000;fill-opacity:1;stroke-width:3.02185;stroke-linecap:round;stroke-linejoin:round;paint-order:stroke fill markers;stop-color:#000000"
       x="58.084946"
       y="32.053879"
       id="text1831"
       transform="scale(0.95303755,1.0492766)"><tspan
         sodipodi:role="line"
         id="tspan1829"
         x="58.084946"
         y="32.053879"
         style="font-style:normal;font-variant:normal;font-weight:bold;font-stretch:normal;font-size:9.75855px;font-family:Roboto;-inkscape-font-specification:'Roboto, Bold';font-variant-ligatures:normal;font-variant-caps:normal;font-variant-numeric:normal;font-variant-east-asian:normal;fill:#000000;fill-opacity:1;stroke-width:3.02185"
         dx="0 0 0 0 0 0 0 0">Plateforme</tspan></text><rect
       style="fill:#0054a6;fill-opacity:1;stroke-width:6.17328"
       id="rect1987"
       width="88.964958"
       height="1.6375867"
       x="55.276791"
       y="21.86817" /><g
       id="SVGRepo_iconCarrier"
       transform="matrix(1.1480781,0,0,1.1480781,-262.04913,-252.23722)"> <path
   d="m 251.62011,229.75822 c -5.43408,0 -9.83925,4.40518 -9.83925,9.83926 0,5.43408 4.40517,9.83925 9.83925,9.83925 5.43408,0 9.83926,-4.40517 9.83926,-9.83925 0,-5.43408 -4.40518,-9.83926 -9.83926,-9.83926 z m -8.57818,10.45423 h 2.1101 c 0.0469,1.02099 0.20124,1.95512 0.44088,2.79403 h -1.87505 c -0.37545,-0.8669 -0.60577,-1.8083 -0.67593,-2.79403 z m 11.61349,-1.22991 c -0.0463,-0.98846 -0.16345,-1.92476 -0.32208,-2.79402 h 2.01572 c 0.26831,0.82505 0.45249,1.7554 0.50803,2.79402 z m -4.58629,4.02394 c -0.17358,-0.95834 -0.25876,-1.8938 -0.27454,-2.79403 h 3.65109 c -0.0158,0.90023 -0.10097,1.83569 -0.27458,2.79403 z m 2.83402,1.22991 c -0.28835,1.10693 -0.70573,2.23531 -1.28316,3.36614 -0.57734,-1.13083 -0.99464,-2.25921 -1.28296,-3.36614 z m -3.09181,-5.25385 c 0.0487,-0.99412 0.17442,-1.9309 0.34132,-2.79402 h 2.93491 c 0.16695,0.86312 0.29261,1.7999 0.34136,2.79402 z m 0.6177,-4.02389 c 0.38434,-1.50035 0.85919,-2.68411 1.19099,-3.41294 0.33185,0.72883 0.80675,1.91259 1.19116,3.41294 z m 3.64366,0 c -0.39236,-1.62597 -0.89617,-2.9321 -1.27015,-3.77626 0.46478,0.33071 2.0089,1.55311 3.06222,3.77626 z m -3.63518,-3.77635 c -0.37398,0.84417 -0.8777,2.15034 -1.27003,3.77635 h -1.79227 c 1.05344,-2.22335 2.59769,-3.44575 3.0623,-3.77635 z m -1.53063,5.00626 c -0.15863,0.86926 -0.27578,1.80556 -0.32205,2.79402 h -2.2019 c 0.0555,-1.03858 0.23968,-1.96897 0.50803,-2.79402 z m -3.75353,2.79398 h -2.11143 c 0.0702,-0.98573 0.30044,-1.92705 0.67589,-2.79402 h 1.8836 c -0.2414,0.83878 -0.39875,1.77227 -0.44806,2.79402 z m 1.22894,1.22991 h 2.18568 c 0.014,0.90175 0.0898,1.83597 0.25064,2.79403 h -1.92701 c -0.2706,-0.82718 -0.45538,-1.75782 -0.50931,-2.79403 z m 2.69101,4.02394 c 0.30169,1.25231 0.74979,2.53226 1.39533,3.81734 -0.43561,-0.31188 -2.01917,-1.55749 -3.09286,-3.81734 z m 3.69679,3.82011 c 0.64634,-1.28601 1.09485,-2.56688 1.39682,-3.82011 h 1.70982 c -1.07047,2.27138 -2.66082,3.50667 -3.10664,3.82011 z m 1.65155,-5.05002 c 0.16084,-0.95806 0.23671,-1.89228 0.25064,-2.79403 h 2.18609 c -0.0529,1.0381 -0.2347,1.96849 -0.50133,2.79403 z m 3.66631,-2.79403 h 2.11034 c -0.0702,0.98573 -0.30048,1.92709 -0.67594,2.79403 h -1.87524 c 0.23964,-0.83891 0.39389,-1.77304 0.44084,-2.79403 z m -0.001,-1.22991 c -0.0493,-1.02179 -0.20667,-1.95524 -0.44807,-2.79402 h 1.88384 c 0.37549,0.86694 0.60573,1.80825 0.67589,2.79402 z m 0.77469,-4.02389 h -1.65628 c -0.54975,-1.32424 -1.26646,-2.37179 -1.9409,-3.15001 1.47536,0.69317 2.72205,1.78874 3.59719,3.15001 z m -10.8857,-3.14985 c -0.67438,0.77823 -1.391,1.82572 -1.94071,3.14985 h -1.65608 c 0.87505,-1.36119 2.12162,-2.45664 3.59679,-3.14985 z m -3.59676,12.42759 h 1.64605 c 0.54144,1.3107 1.24803,2.35475 1.91774,3.13385 -1.46071,-0.69404 -2.69528,-1.78295 -3.56379,-3.13385 z m 10.91893,3.13369 c 0.66955,-0.77902 1.37601,-1.82307 1.91733,-3.13369 h 1.64617 c -0.86843,1.35082 -2.10291,2.43965 -3.5635,3.13369 z"
   id="path2435"
   style="fill:#0054a6;fill-opacity:1;stroke-width:0.0401602" /> </g><g
       id="g2971"
       transform="matrix(0.06797235,0,0,0.06797235,24.243502,46.040348)"
       style="fill:#0054a6;fill-opacity:1"><path
         class="st0"
         d="m 287.78176,-528.00691 -226.572001,-104.294 c -7.349,-3.385 -15.177,-5.093 -23.265,-5.093 -8.088,0 -15.914,1.708 -23.265,5.093 l -226.571999,104.294 c -3.745,1.731 -6.163,5.504 -6.163,9.627 0,4.123 2.418,7.896 6.163,9.627 l 226.571999,104.294 c 7.349,3.385 15.177,5.101 23.265,5.101 8.088,0 15.916,-1.716 23.267,-5.101 l 178.812001,-82.306 v 82.881 c -7.096,0.8 -12.63,6.84 -12.63,14.138 0,6.359 4.208,11.864 10.206,13.618 l -12.092,79.791 h 55.676 l -12.09,-79.791 c 5.996,-1.754 10.204,-7.259 10.204,-13.618 0,-7.298 -5.534,-13.338 -12.63,-14.138 v -95.148 l 21.116,-9.721 c 3.744,-1.731 6.163,-5.504 6.163,-9.627 0,-4.123 -2.42,-7.896 -6.165,-9.627 z"
         id="path2969"
         style="fill:#ffffff;fill-opacity:1" /></g><g
       id="g344"
       transform="matrix(0.06797235,0,0,0.06797235,24.484316,45.799534)"
       style="fill:#0054a6;fill-opacity:1"><path
         class="st0"
         d="m 282.77147,-543.03778 -226.572001,-104.294 c -7.349,-3.385 -15.177,-5.093 -23.265,-5.093 -8.088,0 -15.914,1.708 -23.2650003,5.093 l -226.5719987,104.294 c -3.745,1.731 -6.163,5.504 -6.163,9.627 0,4.123 2.418,7.896 6.163,9.627 l 226.5719987,104.294 c 7.3490003,3.385 15.1770003,5.101 23.2650003,5.101 8.088,0 15.916,-1.716 23.267,-5.101 l 178.812001,-82.306 v 82.881 c -7.096,0.8 -12.63,6.84 -12.63,14.138 0,6.359 4.208,11.864 10.206,13.618 l -12.092,79.791 h 55.676 l -12.09,-79.791 c 5.996,-1.754 10.204,-7.259 10.204,-13.618 0,-7.298 -5.534,-13.338 -12.63,-14.138 v -95.148 l 21.116,-9.721 c 3.744,-1.731 6.163,-5.504 6.163,-9.627 0,-4.123 -2.42,-7.896 -6.165,-9.627 z"
         id="path340"
         style="fill:#0054a6;fill-opacity:1" /></g></g></svg>
