<?xml version="1.0" encoding="UTF-8" standalone="no"?>
<svg
   id="Layer_2"
   data-name="Layer 2"
   viewBox="0 0 400 300"
   data-imageid="shopping-cart-5"
   imageName="Online shopping"
   class="illustrations_image"
   style="width: 241px;"
   version="1.1"
   sodipodi:docname="shopping-cart-5 - Copie.svg"
   inkscape:version="1.2 (dc2aedaf03, 2022-05-15)"
   xmlns:inkscape="http://www.inkscape.org/namespaces/inkscape"
   xmlns:sodipodi="http://sodipodi.sourceforge.net/DTD/sodipodi-0.dtd"
   xmlns:xlink="http://www.w3.org/1999/xlink"
   xmlns="http://www.w3.org/2000/svg"
   xmlns:svg="http://www.w3.org/2000/svg">
  <sodipodi:namedview
     id="namedview254"
     pagecolor="#ffffff"
     bordercolor="#000000"
     borderopacity="0.25"
     inkscape:showpageshadow="2"
     inkscape:pageopacity="0.0"
     inkscape:pagecheckerboard="0"
     inkscape:deskcolor="#d1d1d1"
     showgrid="false"
     inkscape:zoom="1.0335544"
     inkscape:cx="-114.16912"
     inkscape:cy="260.2669"
     inkscape:window-width="1858"
     inkscape:window-height="1057"
     inkscape:window-x="54"
     inkscape:window-y="-8"
     inkscape:window-maximized="1"
     inkscape:current-layer="Layer_2" />
  <defs
     id="defs9">
    <linearGradient
       id="linear-gradient"
       x1="170.97"
       y1="253.24"
       x2="231.06"
       y2="182.44"
       gradientUnits="userSpaceOnUse">
      <stop
         offset="0"
         stop-color="#4444a5"
         id="stop2" />
      <stop
         offset="1"
         id="stop4" />
    </linearGradient>
    <linearGradient
       id="linear-gradient-2"
       x1="257.72"
       y1="194.94"
       x2="310.73"
       y2="132.48"
       xlink:href="#linear-gradient" />
    <linearGradient
       id="linear-gradient-3"
       x1="41.11"
       y1="189.58"
       x2="74.94"
       y2="169.47"
       xlink:href="#linear-gradient" />
    <linearGradient
       id="linear-gradient-4"
       x1="152.96001"
       y1="251.23"
       x2="222.49001"
       y2="174.27"
       gradientUnits="userSpaceOnUse">
      <stop
         offset="0"
         stop-color="#fff"
         stop-opacity="0"
         id="stop429" />
      <stop
         offset="0.99"
         stop-color="#006837"
         id="stop431" />
    </linearGradient>
    <linearGradient
       id="linear-gradient-2-8"
       x1="299.20999"
       y1="189.21001"
       x2="288.42999"
       y2="207.69"
       gradientTransform="matrix(-1,0,0,1,405.66,0)"
       gradientUnits="userSpaceOnUse">
      <stop
         offset="0"
         stop-color="#d46a00"
         id="stop434" />
      <stop
         offset="1"
         stop-color="#fff"
         id="stop436" />
    </linearGradient>
  </defs>
  <title
     id="title11">PP</title>
  <g
     id="Layer_2-3"
     data-name="Layer 2"
     transform="translate(3.3236697,-4.0902214)"
     style="isolation:isolate">
    <path
       d="m 350.54,174.84 -121,-70.38 a 5.72,5.72 0 0 0 -5.72,0 L 42.83,208 a 5.72,5.72 0 0 0 0,9.92 l 115.73,66.82 a 18.68,18.68 0 0 0 18.68,0 l 173.3,-100 a 5.72,5.72 0 0 0 0,-9.9 z"
       fill="#608a46"
       id="path443"
       style="fill:#4444a5;fill-opacity:1" />
    <polygon
       points="205.85,160.31 274.47,203.88 171.13,262.05 102,220.49 "
       opacity="0.63"
       fill="url(#linear-gradient)"
       style="mix-blend-mode:multiply;fill:url(#linear-gradient-4)"
       id="polygon445" />
    <path
       d="m 213.73,21.48 c 13.7,8.11 47.59,28.18 57.72,34.06 a 5.66,5.66 0 0 1 2.82,4.94 v 139.16 c 0.21,2.84 -3,5.46 -5.61,4 l -57,-32.44 c -2.29,-1.31 -3.75,-3.16 -3.75,-5.81 V 24.8 a 3.85,3.85 0 0 1 5.82,-3.32 z"
       fill="#68e1fd"
       class="target-color"
       id="path447" />
    <path
       d="m 208.29,23.13 18.14,10.47 v 3.87 a 1.86,1.86 0 0 0 0.93,1.61 l 13.87,8 A 1.23,1.23 0 0 0 243.07,46 v -2.79 l 26,15.27 a 1.65,1.65 0 0 1 0.82,1.42 V 199 a 1.12,1.12 0 0 1 -1.69,1 l -60.33,-35 a 6,6 0 0 0 2.66,5.55 c 3.13,2 58.09,33.09 58.09,33.09 0,0 4.35,2 5.61,-3.22 V 60.49 a 5.72,5.72 0 0 0 -2.36,-4.64 C 269.4,54 213.73,21.48 213.73,21.48 a 3.94,3.94 0 0 0 -5.44,1.65 z"
       fill="#124577"
       id="path449" />
    <path
       d="m 114,198.62 c 1.42,1.32 4.33,-3.35 6.1,-2.72 a 30,30 0 0 0 8.47,1.65 12.17,12.17 0 0 0 7.69,-1.69 7.91,7.91 0 0 0 -0.5,-13.06 l 3.14,-1.56 10.64,7.4 c 0,0 -0.88,15.57 -29.64,13.39 l -33.47,19.05 -8.55,-6.46 z"
       fill="url(#linear-gradient-2)"
       style="mix-blend-mode:multiply;fill:url(#linear-gradient-2-8)"
       id="path451" />
    <path
       d="m 110.5,188.64 c 0,-6 7.22,-10.65 16.44,-10.65 9.22,0 16.44,4.68 16.44,10.65 0,5.97 -7.22,10.65 -16.44,10.65 -9.22,0 -16.44,-4.68 -16.44,-10.65 z m 4.71,0 c 0,2.81 4.82,5.94 11.73,5.94 6.91,0 11.73,-3.13 11.73,-5.94 0,-2.81 -4.82,-5.94 -11.73,-5.94 -6.91,0 -11.73,3.13 -11.73,5.94 z"
       fill="#ffffff"
       id="path453" />
    <path
       d="m 115.61,193.08 c -0.54,-0.49 -23.12,13 -23.12,13 l -14.61,8.49 3.18,2.46 a 2.53,2.53 0 0 0 2.81,0.19 L 119,196.93 Z"
       fill="#ffffff"
       id="path455" />
    <path
       d="m 78.25,208.78 5.93,3.94 -3.12,4.36 -6.36,-4 a 4.13,4.13 0 0 1 3.55,-4.3 z"
       fill="#ffffff"
       id="path457" />
    <path
       d="m 85.3,204.3 a 3.91,3.91 0 0 1 3,-0.91 l 5.7,3.75 -3.12,4.36 -7,-4.41 a 4.27,4.27 0 0 1 1.42,-2.79 z"
       fill="#ffffff"
       id="path459" />
    <path
       d="m 133.07,61 -8,-4.49 c 0,0 -7.52,7.52 -27.69,-2 0,0 -11.74,23 -27.24,34.16 0,0 -0.91,41.94 22.19,49.71"
       fill="#68e1fd"
       class="target-color"
       id="path461" />
    <path
       d="m 133.07,61 -8,-4.49 c 0,0 -7.52,7.52 -27.69,-2 0,0 -11.74,23 -27.24,34.16 0,0 -0.91,41.94 22.19,49.71"
       fill="#124577"
       opacity="0.51"
       id="path463" />
    <path
       d="M 77.07,93 A 107.65,107.65 0 0 0 104.3,58.34 29.55,29.55 0 0 0 133.07,61 c 0,0 -2.57,35.39 -10.71,52.75 -8.14,17.36 -9.75,20.12 -17.29,28.42 0,0 -9.48,2.08 -17.44,-8.68 C 76.5,118.51 77.07,93 77.07,93 Z"
       fill="#68e1fd"
       class="target-color"
       id="path465" />
    <path
       d="m 103,110.17 q -2.56,-4.51 -4.92,-9.11 a 3,3 0 0 0 -5.2,-0.31 v 0.06 a 3,3 0 0 0 -0.19,3.1 c 1.63,3.15 3.3,6.27 5,9.36 1.97,3.44 7.31,0.35 5.31,-3.1 z"
       fill="#ffffff"
       id="path467" />
    <path
       d="m 97.93,110.25 a 321.08,321.08 0 0 0 17.27,-30.4 c 1.76,-3.54 7.06,-0.43 5.3,3.1 a 321.11,321.11 0 0 1 -17.27,30.4 c -2.12,3.31 -7.44,0.24 -5.3,-3.1 z"
       fill="#ffffff"
       id="path469" />
    <path
       d="m 246.68,122.17 c 0,0 6.68,-4.34 6.74,-4.39 0.06,-0.05 -4.45,-3.49 -4.45,-3.49 l -2.64,4.95"
       fill="#3a270b"
       id="path471" />
    <polyline
       points="220.76 69.84 226.72 65.95 228.19 73.82 222.16 72.59"
       fill="#3a270b"
       id="polyline473" />
    <path
       d="m 229,65.76 a 2.12,2.12 0 0 0 -3.18,1.79 l -0.66,33.59 a 3,3 0 0 0 1.47,2.58 l 23.63,14.09 a 3,3 0 0 0 4.55,-2.58 V 82.38 a 3,3 0 0 0 -1.56,-2.64 z"
       fill="#3a270b"
       id="path475" />
    <path
       d="m 222.67,69.94 a 2.12,2.12 0 0 0 -3.18,1.79 l -0.66,33.59 a 3,3 0 0 0 1.47,2.58 l 23.64,14.1 a 3,3 0 0 0 4.55,-2.58 V 86.57 a 3,3 0 0 0 -1.56,-2.64 z"
       fill="#7d0000"
       id="path477" />
    <ellipse
       cx="232.61"
       cy="90.18"
       rx="5.0900002"
       ry="8.0799999"
       transform="rotate(-4.56,232.503,90.134425)"
       fill="#68e1fd"
       class="target-color"
       id="ellipse479" />
    <rect
       x="229.98"
       y="91.309998"
       width="3.8399999"
       height="15.95"
       rx="1.42"
       ry="1.42"
       fill="#68e1fd"
       class="target-color"
       id="rect481" />
    <ellipse
       cx="245.63"
       cy="79.32"
       rx="2.4400001"
       ry="1.47"
       fill="#ffffff"
       id="ellipse483" />
    <path
       d="M 238.23,53.33 C 226.8,50.58 226.89,63.81 226.89,63.81 v 4.73 a 4.89,4.89 0 0 0 0.19,2.06 2.76,2.76 0 0 0 2.15,0.81 c 0.68,0 1.66,-0.11 2,-0.73 a 4.16,4.16 0 0 0 0.17,-1.79 c -0.07,-1.1 -0.09,-2.21 -0.05,-3.31 0.07,-2.38 0.28,-5.28 1.81,-7.23 a 3.67,3.67 0 0 1 4.27,-1.06 c 5.87,1.95 5.71,9 5.71,9 v 13 h 4.88 V 65.95 c 0,0 -0.87,-10.48 -9.79,-12.62 z"
       fill="#ffffff"
       id="path485" />
    <path
       d="m 205.11,123.16 a 1,1 0 0 0 0.15,-0.55 6.92,6.92 0 0 0 -2.18,-5.09 2.39,2.39 0 0 0 -3.73,0.68 c -1.52,3.11 1.95,6.24 4.73,6.61 0.77,0.1 1.08,-0.55 1,-1.16 a 1.06,1.06 0 0 0 0.03,-0.49 z"
       fill="#fbb5ad"
       id="path487" />
    <polygon
       points="202.35,177 196.76,173.89 201.41,186.62 "
       fill="#382624"
       id="polygon489" />
    <path
       d="m 253.21,102.69 a 1.43,1.43 0 0 0 -0.15,-0.28 2.09,2.09 0 0 0 0.65,-1.69 1.48,1.48 0 0 0 -0.58,-1 1.08,1.08 0 0 0 -1,-1.77 c -1.57,0.31 -2.61,2.38 -3.46,3.6 -0.62,0.9 -1.21,1.83 -1.76,2.78 -0.1,-1.36 -0.28,-2.72 -0.39,-4 -0.11,-1.28 -2.09,-1.36 -2.08,0 a 19.38,19.38 0 0 1 -0.63,6.07 2,2 0 0 0 -0.55,0.41 A 49.55,49.55 0 0 1 222,120 a 2,2 0 0 0 0.21,3.75 1.92,1.92 0 0 0 1.38,1.71 2.18,2.18 0 0 0 1,1.45 l -1.36,0.6 c -2.23,0.93 -1.25,4.62 1,3.67 a 54.57,54.57 0 0 0 21.71,-16.37 c 0.66,-0.63 1.31,-1.26 2,-1.92 1,-1 5.85,-5.88 4.65,-8 0.36,-0.72 0.98,-1.27 0.62,-2.2 z"
       fill="#fbb5ad"
       id="path491" />
    <path
       d="m 219.65,80 c -2.28,0.91 -4,5.81 -3.84,6.84 L 217.6,86 217.92,85.65 A 21.56,21.56 0 0 1 219.65,80 Z"
       fill="#fbb5ad"
       id="path493" />
    <path
       d="m 220,84 a 1.32,1.32 0 0 0 -0.4,-0.19 l -0.15,-0.13 c -0.89,-0.69 -2.26,0.2 -3.06,0.65 a 17,17 0 0 0 -2.9,1.94 5.09,5.09 0 0 0 -0.86,1.87 c -0.33,0.81 -0.68,1.62 -1.06,2.41 a 44.54,44.54 0 0 1 -2.66,4.81 45.7,45.7 0 0 1 -6.78,8.28 c -1.2,1.16 0.64,3 1.83,1.82 l 0.86,-0.85 a 1.1,1.1 0 0 0 1.21,0 4.88,4.88 0 0 0 0.6,-0.48 l 0.28,-0.23 a 1.27,1.27 0 0 0 2.09,0.45 l 0.88,-0.91 a 1.14,1.14 0 0 0 0.63,-0.59 c 0,-0.06 0.13,1.76 0.17,1.71 1.41,-1.49 3.07,-5.59 4.47,-8 a 0.52,0.52 0 0 1 0.09,-0.33 c 1.1,-1.75 0.94,-2.8 1.08,-4.82 a 19,19 0 0 1 0.31,-3.46 l 2.3,-1.77 c 0.55,-0.42 1.15,-1.06 1,-1.69 A 1.33,1.33 0 0 0 220,84 Z"
       fill="#fbb5ad"
       id="path495" />
    <path
       d="m 228.49,116.38 c -8.16,2.4 -9.55,1.48 -13.42,1.36 -3.87,-0.12 -8,-5.54 -8,-5.54 0,0 -1,-12.1 -8.18,-2.63 -5.38,7.07 -7.44,27.54 -8.14,37.45 2.68,2.13 6.23,2.93 9.58,3.43 a 41.14,41.14 0 0 0 6.69,0.56 10,10 0 0 0 4,-0.87 l 3.82,-17.75 c 9.76,0.79 17.27,-5 17.27,-5 z"
       fill="#ffc60b"
       id="path497" />
    <path
       d="m 211,101.85 c 0,0 5.25,10.07 0.07,12.87 -5.18,2.8 -9.25,-1.86 -9.69,-3.07 -0.44,-1.21 -0.38,-10.54 9.62,-9.8 z"
       fill="#fbb5ad"
       id="path499" />
    <path
       d="m 211.37,100.34 c -2.67,-1.92 -5.91,-2 -9,-1.27 a 13.2,13.2 0 0 0 -7,3.66 4.47,4.47 0 0 0 -2.26,-0.77 4.64,4.64 0 0 0 -4.64,2.88 4,4 0 0 0 1.58,4.73 5.07,5.07 0 0 0 3.84,0.35 v 0.24 c 0.17,1.9 -1.62,2.86 -2.32,4.47 a 3.76,3.76 0 0 0 -0.28,2.36 c 0.18,0.8 1,1.65 1,2.45 a 3.79,3.79 0 0 1 -0.85,1.69 8.4,8.4 0 0 0 -0.91,1.76 c 3.77,2 8.49,2 12.59,1.18 4.35,-0.9 8.82,-2.93 11.76,-6.35 a 3.14,3.14 0 0 0 -0.79,-1.09 11.71,11.71 0 0 0 -2.25,-1.18 c -1.12,-0.65 0,-2.6 0,-3.65 -0.07,-1.81 -1.39,-2.56 -2.88,-3.18 -1.08,-0.45 -1.13,-1.11 -1.14,-2.22 a 4.16,4.16 0 0 1 0.52,-2.52 1.4,1.4 0 0 0 0.94,-0.2 7.73,7.73 0 0 1 1.79,-0.79 1.27,1.27 0 0 0 0.77,-1.6 1,1 0 0 0 -0.47,-0.95 z"
       fill="#56403d"
       id="path501" />
    <path
       d="m 207.39,104.36 a 20.29,20.29 0 0 0 4.91,-1.73 c 0,-0.17 0.5,-6.43 -10.62,-4.26 -11.12,2.17 -5.85,15.48 -5.85,15.48"
       fill="#56403d"
       id="path503" />
    <path
       d="m 195.25,242.84 c -1,-0.35 -2.51,-0.62 -3.23,-1.53 -0.72,-0.91 -0.64,-2.38 -0.67,-3.49 -0.03,-1.11 0,-2.25 0,-3.37 a 0.56,0.56 0 0 1 -0.21,-0.41 20.25,20.25 0 0 1 0,-2.75 l -4.62,-0.45 c 0,0 -2.05,7.9 -1.92,8.8 0.13,0.9 4.53,6.9 6.76,7.31 2.23,0.41 8.44,-1.54 9,-2.4 v -0.08 c -1.71,-0.47 -3.42,-1.04 -5.11,-1.63 z"
       fill="#fbb5ad"
       id="path505" />
    <path
       d="m 227.18,226.38 c -1.52,-0.3 -7.83,0.72 -7.83,0.72 0,0 -0.89,-5.15 -0.76,-5.4 l -6.57,0.46 c 0,0 -0.83,9.56 -0.83,10.82 0,2.32 2.87,3 3.5,3 a 11.29,11.29 0 0 0 1.32,-0.54 19.08,19.08 0 0 1 -0.37,-3.62 c 0,-0.56 0.15,-0.95 0.68,-1.15 1,-0.37 2.77,0.16 3.76,0.35 1.18,0.22 2.34,0.5 3.51,0.71 2.59,-1.37 4.77,-2.67 5,-3.21 0.41,-1.38 0.93,-1.69 -1.41,-2.14 z"
       fill="#fbb5ad"
       id="path507" />
    <path
       d="m 229.38,226.78 -0.16,-0.18 c -0.5,-0.49 -1.82,-0.44 -2.44,-0.46 a 31,31 0 0 0 -7.43,1 c 0,0 6,-0.81 6.19,0.26 a 2.83,2.83 0 0 1 -0.6,2.46 c -2.49,2.21 -6.37,-0.23 -8.79,-1.27 l -4.5,-1.94 -0.29,3.66 c 0,0 -0.31,4.52 0,5 0.31,0.48 3,1.92 3.54,1.63 0.54,-0.29 2.32,-1.33 2.32,-1.33 l -0.35,-4.42 c 0,0 3.72,1.61 5.47,1.15 1.31,-0.34 8.59,-3.48 7.04,-5.56 z"
       fill="#56403d"
       id="path509" />
    <path
       d="m 208.19,224.74 c 5.84,1.11 12,0.09 16.42,-3.89 0.1,-9.73 1,-18.51 0.71,-28.23 -0.46,-15.87 -2.77,-31.45 -13.91,-43.83 l -20.28,-3.11 c -8.23,15.65 -9.91,87.27 -9.91,87.27 0,0 10.25,6.62 18.19,3.43 l 3,-59.68 c 0,0 5.37,6.36 6.35,9.91 0.75,2.57 -0.7,26.14 -0.57,38.13 z"
       fill="#eb6f24"
       id="path511" />
    <path
       d="m 188.53,239.74 c 0,0 2.42,7.55 3.29,8 0.87,0.45 10.16,-2.47 8.78,-4.24 -0.89,-1.13 -6.49,-1.11 -7,-1.26 0,0 2.95,1 2.95,1.43 0,0.43 -3.71,2.19 -3.9,1.84 -0.19,-0.35 -4.23,-7 -4.23,-7 l -3.8,-1.34 -3.13,6.95 2.65,1.14 c 0,0 0.81,2.11 1.08,2.11 0.27,0 2.43,-3.9 2.43,-3.9 0,0 0.54,2.49 0.92,2.76 0.38,0.27 3.46,2.81 4.87,0.87 l -2.6,-2.92"
       fill="#56403d"
       id="path513" />
    <polyline
       points="181.5 244.2 181.98 245.93 185.23 247.45 185.23 244.2 183.36 243.55"
       fill="#56403d"
       id="polyline515" />
    <ellipse
       cx="221.75"
       cy="150.16"
       rx="2.8499999"
       ry="4.1799998"
       transform="matrix(0.98,-0.19,0.19,0.98,-24.41,44.69)"
       fill="#507282"
       id="ellipse517" />
    <ellipse
       cx="231.36"
       cy="155.28999"
       rx="2.8499999"
       ry="4.1799998"
       transform="rotate(-10.91,231.38318,155.29447)"
       fill="#507282"
       id="ellipse519" />
    <ellipse
       cx="240.59"
       cy="160.31"
       rx="2.8499999"
       ry="4.1799998"
       transform="matrix(0.98,-0.19,0.19,0.98,-25.99,48.44)"
       fill="#507282"
       id="ellipse521" />
    <ellipse
       cx="249.82001"
       cy="165.31"
       rx="2.8499999"
       ry="4.1799998"
       transform="matrix(0.98,-0.19,0.19,0.98,-26.77,50.27)"
       fill="#507282"
       id="ellipse523" />
  </g>
</svg>
